<svg height="512pt" viewBox="0 0 512 512" width="512pt" xmlns="http://www.w3.org/2000/svg"><path d="m512 256c0 141.386719-114.613281 256-256 256s-256-114.613281-256-256 114.613281-256 256-256 256 114.613281 256 256zm0 0" fill="#247AFD"/><path d="m437.023438 437.023438c-99.808594 99.808593-262.222657 99.808593-362.03125 0-99.808594-99.808594-99.808594-262.222657 0-362.03125zm0 0" fill="#247AFD"/><path d="m336 208v-24c0-39.695312-32.304688-72-72-72s-72 32.304688-72 72v56h-32v32h32v59.152344l-45.902344 68.847656h189.902344v-32h-130.097656l18.097656-27.152344v-68.847656h80v-32h-80v-56c0-22.046875 17.953125-40 40-40s40 17.953125 40 40v24zm0 0" fill="#fff"/></svg>