<svg height="512" viewBox="0 0 52 58" width="512" xmlns="http://www.w3.org/2000/svg"><g id="Page-1" fill="none" fill-rule="evenodd"><g id="008---Mobile-Conversation" fill-rule="nonzero"><path id="Shape" d="m44 7v44c0 1.8565154-.7374979 3.6369928-2.0502525 4.9497475-1.3127547 1.3127546-3.0932321 2.0502525-4.9497475 2.0502525h-22c-1.8565154 0-3.6369928-.7374979-4.9497475-2.0502525-1.31275462-1.3127547-2.0502525-3.0932321-2.0502525-4.9497475v-44c0-3.86599325 3.1340068-7 7-7l2.71 4.51c.1767529.30704704.5057412.4944939.86.49h14.86c.3542588.0044939.6832471-.18295296.86-.49l2.71-4.51c3.8659932 0 7 3.13400675 7 7z" fill="#2980ba"/><path id="Shape" d="m43.71 5.01c-3.25.13-33.26 2.57-35.57 47.4-.09259308-.4643014-.13948363-.9365562-.14-1.41v-44c0-3.86599325 3.1340068-7 7-7l2.71 4.51c.1767529.30704704.5057412.4944939.86.49h14.86c.3542588.0044939.6832471-.18295296.86-.49l2.71-4.51c3.1008581-.00478414 5.8335573 2.03557696 6.71 5.01z" fill="#3b97d3"/><path id="Shape" d="m37 0-2.71 4.51c-.1767529.30704704-.5057412.4944939-.86.49h-14.86c-.3542588.0044939-.6832471-.18295296-.86-.49l-2.71-4.51z" fill="#464f5d"/><path id="Shape" d="m36 54h-20c-.5522847 0-1-.4477153-1-1s.4477153-1 1-1h20c.5522847 0 1 .4477153 1 1s-.4477153 1-1 1z" fill="#464f5d"/><path id="Shape" d="m26 15v12c0 1.6568542-1.3431458 3-3 3h-1.75l.75 6-6.86-6h-12.14c-1.65685425 0-3-1.3431458-3-3v-12c0-1.6568542 1.34314575-3 3-3h20c1.6568542 0 3 1.3431458 3 3z" fill="#71c285"/><g fill="#fff"><path id="Shape" d="m6 20h-2c-.55228475 0-1-.4477153-1-1s.44771525-1 1-1h2c.55228475 0 1 .4477153 1 1s-.44771525 1-1 1z"/><path id="Shape" d="m22 20h-12c-.55228475 0-1-.4477153-1-1s.44771525-1 1-1h12c.5522847 0 1 .4477153 1 1s-.4477153 1-1 1z"/><path id="Shape" d="m22 24h-2c-.5522847 0-1-.4477153-1-1s.4477153-1 1-1h2c.5522847 0 1 .4477153 1 1s-.4477153 1-1 1z"/><path id="Shape" d="m16 24h-12c-.55228475 0-1-.4477153-1-1s.44771525-1 1-1h12c.5522847 0 1 .4477153 1 1s-.4477153 1-1 1z"/></g><path id="Shape" d="m30 30v8c0 1.6568542 1.3431458 3 3 3h1.75l-.75 6 6.86-6h8.14c1.6568542 0 3-1.3431458 3-3v-8c0-1.6568542-1.3431458-3-3-3h-16c-1.6568542 0-3 1.3431458-3 3z" fill="#f29c1f"/><path id="Shape" d="m48 33h-2c-.5522847 0-1-.4477153-1-1s.4477153-1 1-1h2c.5522847 0 1 .4477153 1 1s-.4477153 1-1 1z" fill="#fff"/><path id="Shape" d="m42 33h-8c-.5522847 0-1-.4477153-1-1s.4477153-1 1-1h8c.5522847 0 1 .4477153 1 1s-.4477153 1-1 1z" fill="#fff"/><path id="Shape" d="m36 37h-2c-.5522847 0-1-.4477153-1-1s.4477153-1 1-1h2c.5522847 0 1 .4477153 1 1s-.4477153 1-1 1z" fill="#fff"/><path id="Shape" d="m48 37h-8c-.5522847 0-1-.4477153-1-1s.4477153-1 1-1h8c.5522847 0 1 .4477153 1 1s-.4477153 1-1 1z" fill="#fff"/></g></g></svg>